# xmcd
#
# Track frame offsets:
#	150
#	12685
#	27061
#	41972
#	49781
#	72099
#	96536
#	114765
#	123265
#	137170
#	147461
#	161738
#	175010
#
# Disc length: 2439 seconds
#
# Revision: 0
# Processed by: cddbd v1.5.2PL0 Copyright (c) Steve Scherf et al.
# Submitted via: EasyCDDAExtractor 11.5.3.1
#
DISCID=b809850d
DTITLE=The DeSoto Caucus - Elite Continental Custom Club
DYEAR=2008
DGENRE=
TTITLE0=Running Out Of Heroes
TTITLE1=Imply Or Implode
TTITLE2=Wonders and Blunders
TTITLE3=Ride On
TTITLE4=Smells Like Rain
TTITLE5=Trans-Frequencing
TTITLE6=Lunaful
TTITLE7=Weary Talkin' Blues
TTITLE8=Belle
TTITLE9=Don't Ask Me About Love
TTITLE10=Invisible
TTITLE11=Overflow
TTITLE12=Nep-Tune
EXTD=
EXTT0=
EXTT1=
EXTT2=
EXTT3=
EXTT4=
EXTT5=
EXTT6=
EXTT7=
EXTT8=
EXTT9=
EXTT10=
EXTT11=
EXTT12=
PLAYORDER=
